<svg width="281" height="63" viewBox="0 0 281 63" fill="none" xmlns="http://www.w3.org/2000/svg">
<path d="M13.4096 19.418C13.4096 20.8233 13.3476 22.3733 13.2236 24.068C13.0996 25.7627 12.9136 27.3127 12.6656 28.718H12.9756C13.1822 28.3047 13.4302 27.8087 13.7196 27.23C14.0502 26.6513 14.4222 26.0313 14.8356 25.37C15.2489 24.7087 15.6829 24.0473 16.1376 23.386L22.5236 13.714H36.4116L25.9956 28.284L37.0316 48H22.8336L16.9436 35.724L13.4096 38.638V48H0.823563V0.879997H13.4096V19.418ZM57.7178 13.094C61.7271 13.094 64.8684 14.1687 67.1418 16.318C69.4564 18.4673 70.6138 21.526 70.6138 25.494V48H61.9958L59.5778 43.474H59.3298C58.4204 44.6727 57.4904 45.6647 56.5398 46.45C55.5891 47.194 54.4938 47.7313 53.2538 48.062C52.0138 48.434 50.5051 48.62 48.7278 48.62C46.8678 48.62 45.1938 48.2273 43.7058 47.442C42.2178 46.6153 41.0398 45.396 40.1718 43.784C39.3451 42.1307 38.9318 40.0433 38.9318 37.522C38.9318 33.8433 40.1304 31.1153 42.5278 29.338C44.9251 27.5193 48.3351 26.5273 52.7578 26.362L58.0278 26.176V25.68C58.0278 24.1507 57.7178 23.076 57.0978 22.456C56.5191 21.7947 55.7131 21.464 54.6798 21.464C53.5638 21.464 52.1998 21.712 50.5878 22.208C48.9758 22.6627 47.3638 23.262 45.7518 24.006L42.3418 16.194C44.3258 15.1607 46.5578 14.396 49.0378 13.9C51.5591 13.3627 54.4524 13.094 57.7178 13.094ZM56.0438 32.81C54.4318 32.8927 53.2744 33.2853 52.5718 33.988C51.9104 34.6493 51.5798 35.6 51.5798 36.84C51.5798 37.9973 51.8278 38.8653 52.3238 39.444C52.8198 39.9813 53.4604 40.25 54.2458 40.25C55.2791 40.25 56.1884 39.7953 56.9738 38.886C57.7591 37.9767 58.1518 36.7987 58.1518 35.352V32.686L56.0438 32.81ZM98.7434 13.094C102.05 13.094 104.757 14.086 106.865 16.07C109.015 18.054 110.089 21.2573 110.089 25.68V48H97.5654V29.276C97.5654 27.0027 97.3174 25.2873 96.8214 24.13C96.3254 22.9727 95.4987 22.394 94.3414 22.394C92.564 22.394 91.386 23.3033 90.8074 25.122C90.2287 26.9407 89.9394 29.5653 89.9394 32.996V48H77.4154V13.714H86.7774L88.5134 18.24H88.8854C89.588 17.1653 90.394 16.256 91.3034 15.512C92.2127 14.7267 93.2667 14.1273 94.4654 13.714C95.7054 13.3007 97.1314 13.094 98.7434 13.094ZM129.416 11.544C129.416 12.7427 129.375 13.9 129.292 15.016C129.209 16.132 129.106 17.1653 128.982 18.116H129.416C130.243 16.7107 131.297 15.5327 132.578 14.582C133.859 13.59 135.575 13.094 137.724 13.094C140.948 13.094 143.593 14.6027 145.66 17.62C147.768 20.6373 148.822 25.0187 148.822 30.764C148.822 34.6493 148.326 37.9353 147.334 40.622C146.383 43.2673 145.04 45.272 143.304 46.636C141.568 47.9587 139.563 48.62 137.29 48.62C135.058 48.62 133.384 48.2067 132.268 47.38C131.193 46.512 130.243 45.6027 129.416 44.652H128.61L126.75 48H116.892V0.879997H129.416V11.544ZM132.888 22.394C132.144 22.394 131.503 22.6627 130.966 23.2C130.47 23.696 130.077 24.4607 129.788 25.494C129.54 26.5273 129.416 27.8707 129.416 29.524V31.198C129.416 33.8433 129.685 35.8273 130.222 37.15C130.759 38.4313 131.689 39.072 133.012 39.072C134.087 39.072 134.872 38.3693 135.368 36.964C135.864 35.5173 136.112 33.4093 136.112 30.64C136.112 27.912 135.864 25.866 135.368 24.502C134.913 23.0967 134.087 22.394 132.888 22.394ZM171.97 13.094C175.979 13.094 179.12 14.1687 181.394 16.318C183.708 18.4673 184.866 21.526 184.866 25.494V48H176.248L173.83 43.474H173.582C172.672 44.6727 171.742 45.6647 170.792 46.45C169.841 47.194 168.746 47.7313 167.506 48.062C166.266 48.434 164.757 48.62 162.98 48.62C161.12 48.62 159.446 48.2273 157.958 47.442C156.47 46.6153 155.292 45.396 154.424 43.784C153.597 42.1307 153.184 40.0433 153.184 37.522C153.184 33.8433 154.382 31.1153 156.78 29.338C159.177 27.5193 162.587 26.5273 167.01 26.362L172.28 26.176V25.68C172.28 24.1507 171.97 23.076 171.35 22.456C170.771 21.7947 169.965 21.464 168.932 21.464C167.816 21.464 166.452 21.712 164.84 22.208C163.228 22.6627 161.616 23.262 160.004 24.006L156.594 16.194C158.578 15.1607 160.81 14.396 163.29 13.9C165.811 13.3627 168.704 13.094 171.97 13.094ZM170.296 32.81C168.684 32.8927 167.526 33.2853 166.824 33.988C166.162 34.6493 165.832 35.6 165.832 36.84C165.832 37.9973 166.08 38.8653 166.576 39.444C167.072 39.9813 167.712 40.25 168.498 40.25C169.531 40.25 170.44 39.7953 171.226 38.886C172.011 37.9767 172.404 36.7987 172.404 35.352V32.686L170.296 32.81ZM212.995 13.094C216.302 13.094 219.009 14.086 221.117 16.07C223.267 18.054 224.341 21.2573 224.341 25.68V48H211.817V29.276C211.817 27.0027 211.569 25.2873 211.073 24.13C210.577 22.9727 209.751 22.394 208.593 22.394C206.816 22.394 205.638 23.3033 205.059 25.122C204.481 26.9407 204.191 29.5653 204.191 32.996V48H191.667V13.714H201.029L202.765 18.24H203.137C203.84 17.1653 204.646 16.256 205.555 15.512C206.465 14.7267 207.519 14.1273 208.717 13.714C209.957 13.3007 211.383 13.094 212.995 13.094ZM241.436 13.094C243.875 13.094 245.735 13.5693 247.016 14.52C248.339 15.4293 249.331 16.566 249.992 17.93H250.24L251.108 13.714H262.02V48.062C262.02 51.286 261.379 53.9933 260.098 56.184C258.817 58.3747 256.853 60.028 254.208 61.144C251.604 62.3013 248.235 62.88 244.102 62.88C241.333 62.88 238.935 62.7353 236.91 62.446C234.885 62.1567 232.963 61.64 231.144 60.896V51.038C232.467 51.6167 233.665 52.092 234.74 52.464C235.815 52.8773 236.972 53.1667 238.212 53.332C239.452 53.5387 240.981 53.642 242.8 53.642C245.073 53.642 246.747 53.208 247.822 52.34C248.938 51.472 249.496 50.2113 249.496 48.558V47.938C249.496 47.4007 249.517 46.76 249.558 46.016C249.641 45.272 249.765 44.4867 249.93 43.66H249.496C248.959 45.024 248.049 46.202 246.768 47.194C245.528 48.1447 243.709 48.62 241.312 48.62C238.047 48.62 235.339 47.1113 233.19 44.094C231.082 41.0767 230.028 36.6747 230.028 30.888C230.028 27.0027 230.524 23.758 231.516 21.154C232.508 18.5087 233.872 16.504 235.608 15.14C237.344 13.776 239.287 13.094 241.436 13.094ZM246.458 22.27C245.631 22.27 244.929 22.6007 244.35 23.262C243.813 23.9233 243.399 24.9153 243.11 26.238C242.862 27.5193 242.738 29.1313 242.738 31.074C242.738 34.05 243.048 36.1993 243.668 37.522C244.329 38.8033 245.321 39.444 246.644 39.444C247.429 39.444 248.07 39.2993 248.566 39.01C249.103 38.6793 249.517 38.2247 249.806 37.646C250.095 37.026 250.281 36.2613 250.364 35.352C250.488 34.4427 250.55 33.368 250.55 32.128V30.702C250.55 28.9247 250.447 27.416 250.24 26.176C250.075 24.8947 249.703 23.9233 249.124 23.262C248.545 22.6007 247.657 22.27 246.458 22.27ZM279.464 32.376H268.738L267.25 3.732H280.952L279.464 32.376ZM267.498 42.978C267.498 40.8287 268.138 39.32 269.42 38.452C270.742 37.584 272.292 37.15 274.07 37.15C275.806 37.15 277.294 37.584 278.534 38.452C279.815 39.32 280.456 40.8287 280.456 42.978C280.456 45.0033 279.815 46.4707 278.534 47.38C277.294 48.2893 275.806 48.744 274.07 48.744C272.292 48.744 270.742 48.2893 269.42 47.38C268.138 46.4707 267.498 45.0033 267.498 42.978Z" fill="black"/>
</svg>
